<?xml version="1.0" standalone="no"?>
<!DOCTYPE svg PUBLIC "-//W3C//DTD SVG 20010904//EN"
 "http://www.w3.org/TR/2001/REC-SVG-20010904/DTD/svg10.dtd">
<svg version="1.0" xmlns="http://www.w3.org/2000/svg"
 width="512.000000pt" height="512.000000pt" viewBox="0 0 512.000000 512.000000"
 preserveAspectRatio="xMidYMid meet">
<metadata>
Created by potrace 1.14, written by Peter Selinger 2001-2017
</metadata>
<g transform="translate(0.000000,512.000000) scale(0.100000,-0.100000)"
fill="#000000" stroke="none">
<path d="M1235 5095 c-14 -13 -25 -32 -26 -42 -4 -82 1 -206 10 -240 26 -94
118 -187 214 -214 31 -9 376 -13 1322 -14 704 -1 1290 -3 1302 -4 12 0 38 -15
57 -31 91 -81 77 -210 -29 -268 -27 -15 -99 -17 -680 -18 -481 -1 -662 -4
-695 -14 -47 -13 -111 -52 -147 -91 -41 -45 -75 -134 -76 -204 l-2 -65 -1015
-1 c-558 0 -1026 -2 -1040 -5 -222 -38 -403 -228 -425 -446 -8 -78 1 -107 38
-123 l32 -13 0 -131 c0 -91 -3 -131 -11 -131 -6 0 -23 -9 -38 -21 l-26 -21 1
-571 c0 -512 2 -579 18 -637 47 -177 191 -319 367 -364 l49 -12 1 -335 c1
-394 7 -433 89 -606 68 -143 84 -199 90 -320 7 -135 8 -137 73 -149 25 -5 72
22 72 42 0 7 5 16 10 19 6 4 135 6 288 6 525 0 476 2 487 -23 14 -32 59 -52
93 -40 37 12 52 46 52 123 0 135 36 186 219 319 148 107 210 179 336 389 120
202 136 239 129 301 -16 134 -190 231 -306 170 -54 -28 -67 -44 -136 -160 -30
-52 -61 -101 -68 -108 -16 -15 -74 -28 -75 -16 -4 27 -5 361 -1 372 3 9 138
12 626 12 665 1 645 -1 665 51 9 24 10 25 132 24 l124 0 0 -215 c1 -118 -1
-223 -3 -233 -5 -19 -33 -22 -62 -7 -10 5 -45 56 -78 112 -33 57 -72 116 -86
131 -119 128 -359 22 -360 -158 0 -56 5 -67 150 -312 104 -174 188 -266 354
-384 149 -107 180 -157 180 -295 0 -83 16 -110 68 -119 25 -4 38 0 56 18 13
13 25 29 27 36 3 9 77 12 319 12 497 0 449 3 459 -25 17 -43 78 -56 115 -24
24 21 26 31 31 126 6 130 14 158 85 312 88 190 93 223 94 619 l1 335 47 12
c165 42 298 164 361 331 22 58 22 60 25 863 2 573 -1 821 -9 860 -37 178 -158
316 -336 383 l-58 22 -1040 5 -1040 5 1 47 c2 81 44 141 114 163 14 5 315 9
670 10 468 1 656 4 686 13 65 19 173 106 174 140 0 6 4 12 8 12 11 0 35 87 37
135 6 139 -100 279 -235 311 -19 4 -613 8 -1320 9 -1222 1 -1287 2 -1323 19
-41 20 -72 57 -82 99 -4 15 -8 69 -10 120 -2 105 -7 120 -41 136 -37 16 -52
14 -79 -14z"/>
</g>
</svg>
